<svg width="512" height="512" viewBox="0 0 512 512" fill="none" xmlns="http://www.w3.org/2000/svg">
<path fill-rule="evenodd" clip-rule="evenodd" d="M114 0.679997C95.045 2.787 73.176 10.769 57.5 21.303C49.156 26.911 46.678 28.987 37.193 38.323C20.006 55.242 7.929 77.67 2.367 103C0.592 111.08 0.5 118.645 0.5 256C0.5 393.355 0.592 400.92 2.367 409C13.67 460.474 51.526 498.33 103 509.633C111.08 511.408 118.645 511.5 256 511.5C393.355 511.5 400.92 511.408 409 509.633C460.534 498.317 498.317 460.534 509.633 409C511.408 400.92 511.5 393.355 511.5 256C511.5 95.277 511.937 106.323 504.768 86C491.554 48.538 461.321 18.65 424.5 6.647C404.674 0.183997 416.655 0.634997 260 0.454997C181.625 0.364997 115.925 0.465997 114 0.679997ZM244 135.989V147.977L204.498 148.239L164.995 148.5L264.498 247.998L364 347.496V307.748V268H376H388V328V388H328H268V376V364H307.748H347.496L247.998 264.498L148.5 164.995L148.239 204.498L147.977 244H135.989H124V184V124H184H244V135.989Z" fill="#FF334D"/>
</svg>
